<svg height="511pt" viewBox="1 -11 511.99898 511" width="511pt" xmlns="http://www.w3.org/2000/svg"><path d="m454.105469 114.722656 40.382812-10.65625c13.144531-3.46875 13.144531-22.125 0-25.589844l-40.382812-10.65625c-4.605469-1.21875-8.203125-4.816406-9.421875-9.421874l-10.65625-40.386719c-3.46875-13.140625-22.121094-13.140625-25.589844 0l-10.65625 40.386719c-1.21875 4.605468-4.816406 8.203124-9.421875 9.417968l-40.382813 10.65625c-13.144531 3.46875-13.144531 22.125 0 25.59375l40.382813 10.65625c4.605469 1.214844 8.203125 4.8125 9.421875 9.421875l10.65625 40.382813c3.46875 13.144531 22.121094 13.144531 25.589844 0l10.65625-40.382813c1.21875-4.605469 4.816406-8.207031 9.421875-9.421875zm0 0" fill="#ff8040"/><path d="m284.480469 50.632812 33.492187 67.859376c4.894532 9.921874 14.359375 16.796874 25.304688 18.386718l74.890625 10.882813c27.566406 4.003906 38.574219 37.882812 18.625 57.328125l-54.1875 52.820312c-7.921875 7.722656-11.539063 18.847656-9.667969 29.75l12.792969 74.585938c4.710937 27.457031-24.109375 48.390625-48.765625 35.429687l-66.980469-35.214843c-9.792969-5.148438-21.488281-5.148438-31.28125 0l-66.980469 35.214843c-24.65625 12.960938-53.476562-7.972656-48.765625-35.429687l12.792969-74.585938c1.867188-10.902344-1.746094-22.027344-9.667969-29.75l-54.1875-52.820312c-19.949219-19.445313-8.941406-53.324219 18.625-57.328125l74.890625-10.882813c10.945313-1.589844 20.410156-8.464844 25.304688-18.386718l33.492187-67.859376c12.328125-24.980468 47.945313-24.980468 60.273438 0zm0 0" fill="#ffbf3e"/><path d="m147.449219 362.246094 12.792969-74.585938c1.871093-10.902344-1.742188-22.027344-9.664063-29.75l-54.191406-52.820312c-19.945313-19.445313-8.941407-53.324219 18.625-57.328125l74.890625-10.882813c10.945312-1.589844 20.410156-8.464844 25.304687-18.386718l33.492188-67.859376c4.023437-8.148437 10.527343-13.621093 17.890625-16.453124-15.203125-5.851563-34.078125-.375-42.382813 16.453124l-33.492187 67.859376c-4.894532 9.921874-14.359375 16.796874-25.304688 18.386718l-74.890625 10.882813c-27.566406 4.003906-38.574219 37.882812-18.625 57.328125l54.1875 52.820312c7.921875 7.722656 11.535157 18.847656 9.667969 29.75l-12.792969 74.585938c-4.492187 26.191406 21.527344 46.429687 45.339844 36.980468-13.832031-5.507812-23.761719-19.992187-20.847656-36.980468zm0 0" fill="#e8a328"/><path d="m361.460938 397.675781-66.984376-35.214843c-8.683593-4.566407-18.863281-5.070313-27.886718-1.539063 1.152344.449219 2.285156.957031 3.394531 1.539063l66.980469 35.214843c9.402344 4.941407 19.398437 4.945313 27.917968 1.550781-1.144531-.453124-2.289062-.953124-3.421874-1.550781zm0 0" fill="#e8a328"/><path d="m146.105469 411.5 48.210937-12.71875c15.6875-4.140625 15.6875-26.410156 0-30.546875l-48.210937-12.722656c-5.496094-1.449219-9.792969-5.746094-11.242188-11.242188l-12.71875-48.207031c-4.140625-15.691406-26.410156-15.691406-30.550781 0l-12.71875 48.207031c-1.453125 5.496094-5.746094 9.792969-11.246094 11.242188l-48.207031 12.722656c-15.691406 4.136719-15.691406 26.40625 0 30.546875l48.207031 12.71875c5.5 1.453125 9.792969 5.746094 11.242188 11.246094l12.722656 48.207031c4.140625 15.6875 26.410156 15.6875 30.546875 0l12.722656-48.207031c1.449219-5.5 5.746094-9.792969 11.242188-11.246094zm0 0" fill="#ff8040"/><path d="m391.535156 350.78125c-.714844-4.167969-4.667968-6.96875-8.839844-6.25-4.164062.714844-6.964843 4.671875-6.25 8.835938l1.746094 10.167968c1.707032 9.960938-2.15625 19.449219-10.332031 25.390625-8.171875 5.9375-18.390625 6.675781-27.335937 1.976563l-66.980469-35.222656c-12.015625-6.316407-26.371094-6.316407-38.402344 0l-26.058594 13.699218c-3.066406-4.085937-7.492187-7.144531-12.8125-8.546875l-48.210937-12.722656c-2.828125-.746094-5.046875-2.964844-5.792969-5.796875l-12.722656-48.207031c-2.757813-10.449219-11.867188-17.46875-22.675781-17.46875-10.804688 0-19.917969 7.019531-22.675782 17.46875l-12.71875 48.207031c-.746094 2.828125-2.96875 5.050781-5.796875 5.796875l-10.382812 2.738281c-4.089844 1.082032-6.527344 5.269532-5.449219 9.355469 1.078125 4.089844 5.265625 6.527344 9.355469 5.449219l10.382812-2.742188c8.148438-2.148437 14.542969-8.542968 16.691407-16.691406l12.722656-48.207031c1.484375-5.628907 6.402344-6.066407 7.871094-6.066407 1.472656 0 6.390624.4375 7.875 6.066407l12.722656 48.207031c2.148437 8.148438 8.542968 14.542969 16.691406 16.691406l48.207031 12.722656c5.628907 1.484376 6.0625 6.398438 6.0625 7.871094s-.4375 6.390625-6.0625 7.875l-48.207031 12.71875c-8.148438 2.148438-14.542969 8.546875-16.695312 16.691406l-12.71875 48.207032c-1.484376 5.628906-6.402344 6.066406-7.875 6.066406-1.472657 0-6.386719-.4375-7.871094-6.066406l-12.722656-48.207032c-2.148438-8.144531-8.546876-14.542968-16.691407-16.691406l-48.207031-12.71875c-5.628906-1.488281-6.066406-6.402344-6.066406-7.875s.4375-6.386718 6.066406-7.875l14.382812-3.792968c4.089844-1.078126 6.527344-5.265626 5.449219-9.355469-1.078125-4.085938-5.269531-6.523438-9.355469-5.449219l-14.382812 3.796875c-10.449219 2.761719-17.46875 11.871094-17.46875 22.679687 0 10.804688 7.019531 19.917969 17.46875 22.671876l48.207031 12.722656c2.828125.746094 5.050781 2.964844 5.796875 5.796875l12.71875 48.207031c2.757813 10.449219 11.871094 17.46875 22.675782 17.46875 10.808593 0 19.921874-7.019531 22.679687-17.46875l12.71875-48.210938c.746094-2.828124 2.964844-5.046874 5.796875-5.792968l48.207031-12.722656c10.207031-2.691407 17.125-11.457032 17.4375-21.933594l28.554688-15.011719c7.570312-3.976563 16.601562-3.976563 24.160156-.003906l66.980469 35.21875c6.089844 3.203125 12.683594 4.785156 19.242187 4.785156 8.519531 0 16.984375-2.671875 24.214844-7.925781 12.800781-9.296875 19.09375-24.761719 16.421875-40.359375zm0 0"/><path d="m496.4375 71.070312-40.382812-10.65625c-1.9375-.511718-3.460938-2.03125-3.96875-3.96875l-10.65625-40.386718c-2.457032-9.304688-10.574219-15.558594-20.199219-15.558594s-17.742188 6.253906-20.199219 15.558594l-10.65625 40.390625c-.511719 1.933593-2.03125 3.457031-3.96875 3.964843l-40.386719 10.65625c-9.304687 2.457032-15.558593 10.574219-15.558593 20.199219s6.253906 17.742188 15.5625 20.199219l40.386718 10.65625c1.933594.507812 3.453125 2.03125 3.964844 3.96875l2.714844 10.285156-48.710938-7.074218c-8.457031-1.230469-15.765625-6.539063-19.546875-14.191407l-33.484375-67.871093c-7.003906-14.183594-21.179687-22.996094-37-22.996094-15.820312 0-30 8.8125-37 22.996094l-33.496094 67.867187c-3.78125 7.660156-11.089843 12.964844-19.546874 14.195313l-74.890626 10.878906c-15.65625 2.277344-28.417968 13.039062-33.304687 28.085937-4.890625 15.046875-.890625 31.253907 10.4375 42.296875l54.191406 52.820313c4.539063 4.429687 7.296875 10.351562 7.765625 16.675781.3125 4.214844 3.984375 7.386719 8.199219 7.066406 4.21875-.3125 7.382813-3.980468 7.070313-8.199218-.746094-10.050782-5.128907-19.460938-12.347657-26.503907l-54.191406-52.824219c-7.234375-7.050781-9.6875-16.996093-6.566406-26.601562 3.121093-9.609375 10.949219-16.214844 20.945312-17.667969l74.890625-10.878906c13.445313-1.957031 25.058594-10.390625 31.074219-22.566406l33.492187-67.871094c4.472657-9.054687 13.171876-14.460937 23.273438-14.460937 10.105469 0 18.804688 5.40625 23.273438 14.460937l33.488281 67.871094c6.011719 12.175781 17.628906 20.609375 31.074219 22.566406l74.886718 10.878906c10 1.453125 17.835938 8.0625 20.957032 17.671875 3.117187 9.605469.660156 19.546875-6.574219 26.597656l-54.191407 52.824219c-9.726562 9.484375-14.160156 23.136719-11.867187 36.523438l6.230469 36.300781c.640625 3.726562 3.875 6.359375 7.535156 6.359375.429688 0 .863281-.035156 1.300781-.109375 4.167969-.714844 6.964844-4.671875 6.25-8.839844l-6.226562-36.296875c-1.445313-8.421875 1.347656-17.007812 7.464843-22.976562l54.191407-52.824219c11.328125-11.039062 15.332031-27.242188 10.445312-42.285156-1.722656-5.304688-4.4375-10.0625-7.902343-14.117188l7.402343-28.066406c.511719-1.9375 2.035157-3.460938 3.972657-3.972656l40.382812-10.65625c9.308594-2.457032 15.5625-10.574219 15.5625-20.199219s-6.253906-17.738281-15.5625-20.195313zm-3.902344 25.59375-40.382812 10.65625c-7.257813 1.914063-12.953125 7.613282-14.871094 14.867188l-5.746094 21.792969c-3.796875-1.855469-7.914062-3.164063-12.265625-3.796875l-9.714843-1.410156-4.375-16.585938c-1.917969-7.257812-7.617188-12.957031-14.871094-14.867188l-40.382813-10.652343c-3.855469-1.019531-4.15625-4.390625-4.15625-5.398438 0-1.011719.300781-4.378906 4.15625-5.398437l40.378907-10.652344c7.265624-1.914062 12.960937-7.613281 14.875-14.871094l10.652343-40.382812c1.019531-3.855469 4.390625-4.15625 5.398438-4.15625 1.007812 0 4.378906.296875 5.398437 4.15625l10.652344 40.378906c1.910156 7.257812 7.609375 12.957031 14.871094 14.875l40.382812 10.652344c3.855469 1.019531 4.15625 4.386718 4.15625 5.398437 0 1.007813-.300781 4.378907-4.15625 5.394531zm0 0"/></svg>