<svg height="512pt" viewBox="0 0 512 512.00038" width="512pt" xmlns="http://www.w3.org/2000/svg"><path d="m455.339844 219.074219c-8.96875 8.96875-23.507813 8.96875-32.476563 0l-128.558593-128.558594c-8.964844-8.96875-8.964844-23.507813 0-32.476563 8.96875-8.96875 23.507812-8.96875 32.476562 0l128.558594 128.558594c8.96875 8.96875 8.96875 23.507813 0 32.476563zm0 0" fill="#ff9357"/><path d="m216.199219 257.542969c-86.949219 86.949219-121.519531 121.519531-121.519531 121.519531s-25.082032 21.011719-46.03125 25.203125l26.234374 26.234375 3.996094 4 30.828125 30.824219c4.1875-20.949219 25.203125-46.03125 25.203125-46.03125s34.570313-34.570313 121.519532-121.519531c86.949218-86.949219 167.027343-78.105469 167.027343-78.105469l-64.871093-64.875-64.28125-64.28125c0 .003906 8.84375 80.082031-78.105469 167.03125zm0 0" fill="#ffcb7c"/><path d="m109.089844 495.601562c-8.53125 8.53125-22.363282 8.53125-30.894532 0l-61.792968-61.792968c-8.53125-8.53125-8.53125-22.363282 0-30.894532s22.363281-8.53125 30.894531 0l61.792969 61.792969c8.53125 8.53125 8.53125 22.363281 0 30.894531zm0 0" fill="#ff9357"/><path d="m316.882812 319.082031c-22.570312-22.582031-59.183593-22.582031-81.761718 0l-80.5 80.5c-11.289063 11.289063-16.929688 26.089844-16.929688 40.878907 0 14.800781 5.640625 29.597656 16.929688 40.878906 22.570312 22.582031 59.179687 22.582031 81.761718 0l80.5-80.5c11.289063-11.289063 16.929688-26.089844 16.929688-40.878906 0-14.800782-5.640625-29.601563-16.929688-40.878907zm-28.042968 59.007813-74.140625 74.449218c-9.097657 9.140626-23.5 9.53125-32.160157.871094-4.207031-4.199218-6.308593-9.789062-6.308593-15.46875 0-6.011718 2.351562-12.121094 7.019531-16.8125l74.300781-74.296875c9.101563-9.140625 23.421875-9.601562 32.082031-.941406 4.1875 4.179687 6.269532 9.71875 6.269532 15.351563 0 6.007812-2.371094 12.136718-7.0625 16.847656zm0 0" fill="#ffcb7c"/><path d="m333.847656 50.96875c-12.855468-12.851562-33.765625-12.851562-46.621094 0-11.867187 11.867188-12.765624 30.601562-2.71875 43.523438.179688 6.53125-.1875 23.601562-7.007812 46.746093-1.5625 5.296875 1.46875 10.859375 6.765625 12.417969 5.300781 1.5625 10.859375-1.46875 12.417969-6.765625 3.773437-12.800781 5.789062-23.992187 6.832031-33.015625l47.992187 47.996094 48.589844 48.585937c-8.371094.964844-18.601562 2.769531-30.25 6.035157-29.332031 8.222656-74.050781 27.769531-120.496094 74.21875l-21.257812 21.257812c-.015625.015625-.035156.03125-.054688.050781l-80.5 80.5c-.019531.019531-.039062.039063-.058593.0625l-19.652344 19.652344c-.207031.207031-.402344.425781-.59375.648437-.707031.84375-13.660156 16.421876-21.761719 34.089844l-38.472656-38.472656c17.667969-8.105469 33.242188-21.054688 34.089844-21.761719.226562-.191406.441406-.386719.648437-.59375l15.882813-15.882812s0-.003907.003906-.003907c0 0 0 0 0-.003906l47.359375-47.355468c0-.003907 0-.003907.003906-.003907 0 0 .003907-.003906.003907-.003906l58.269531-58.269531c14.933593-14.9375 28.109375-30.710938 39.15625-46.894532 3.113281-4.558593 1.941406-10.78125-2.617188-13.894531-4.5625-3.113281-10.785156-1.941406-13.898437 2.617188-10.347656 15.15625-22.726563 29.972656-36.785156 44.027343l-3.835938 3.839844-13.070312-13.070312 2.863281-2.867188c3.90625-3.90625 3.90625-10.238281 0-14.140625-3.902344-3.90625-10.238281-3.90625-14.140625 0l-19.875 19.871094c-3.90625 3.90625-3.90625 10.238281 0 14.144531 1.953125 1.953125 4.511718 2.929688 7.070312 2.929688s5.117188-.976563 7.070313-2.929688l2.867187-2.867187 13.070313 13.074219-33.222657 33.21875-13.070312-13.070313 2.867188-2.863281c3.902343-3.90625 3.902343-10.238282 0-14.144532-3.90625-3.90625-10.238282-3.90625-14.144532 0l-19.875 19.875c-3.902344 3.902344-3.902344 10.238282 0 14.140626 1.953125 1.953124 4.511719 2.929687 7.074219 2.929687 2.558594 0 5.117187-.976563 7.070313-2.929687l2.863281-2.863282 13.070312 13.070313-33.21875 33.222656-13.070312-13.074219 2-2c3.902343-3.902344 3.902343-10.234375 0-14.140625-3.90625-3.90625-10.238281-3.90625-14.144531 0l-9.066407 9.066407c0 .003906-.003906.003906-.003906.003906v.003906l-9.070313 9.066406c-3.90625 3.90625-3.90625 10.238282 0 14.144532 1.953126 1.953124 4.511719 2.929687 7.070313 2.929687s5.121094-.976563 7.074219-2.929687l1.996094-2 13.070312 13.070312-8.492188 8.492188c-6.066406 5.023437-22.488281 16.996093-36.554687 21.546874-12.484375-9.707031-30.582031-8.835937-42.046875 2.628907-12.417969 12.414062-12.417969 32.621093 0 45.035156l61.796875 61.796875c6.210937 6.207031 14.367187 9.3125 22.523437 9.3125 8.152344 0 16.308594-3.105469 22.515626-9.3125 10.707031-10.707031 12.171874-27.199219 4.417968-39.5 1.640625-5.28125 4.375-10.929688 7.421875-16.261719 1.46875 15.6875 8.277344 30.234375 19.550781 41.496094 12.804688 12.8125 29.832032 19.867187 47.949219 19.867187 18.117188 0 35.148438-7.054687 47.957031-19.863281l80.5-80.503906c12.808594-12.804687 19.859376-29.835937 19.859376-47.953125 0-18.125-7.054688-35.15625-19.859376-47.953125h-.003906c-12.589844-12.59375-29.265625-19.609375-47.039062-19.839844 37.957031-33.945312 73.269531-49.242187 97.230468-56.109375 22.664063-6.496094 39.296876-6.785156 45.53125-6.597656 5.765626 4.214844 12.601563 6.324219 19.433594 6.324219 8.441406 0 16.882813-3.214844 23.3125-9.640625 12.851563-12.851563 12.851563-33.765625 0-46.617188zm-231.839844 437.574219c-4.617187 4.621093-12.136718 4.621093-16.753906 0l-61.796875-61.792969c-4.617187-4.621094-4.617187-12.136719 0-16.753906 2.3125-2.308594 5.34375-3.464844 8.378907-3.464844 3.03125 0 6.066406 1.15625 8.375 3.464844l61.796874 61.796875c4.617188 4.617187 4.617188 12.132812 0 16.75zm207.800782-162.378907c9.027344 9.019532 13.996094 21.023438 13.996094 33.808594 0 12.773438-4.972657 24.78125-14 33.808594l-80.503907 80.503906c-9.03125 9.03125-21.039062 14.003906-33.8125 14.003906-12.769531 0-24.777343-4.972656-33.808593-14.007812-9.027344-9.019531-14-21.027344-14-33.808594 0-12.753906 4.960937-24.742187 13.964843-33.765625l80.59375-80.59375c9.023438-9 21.011719-13.957031 33.761719-13.957031 12.773438 0 24.777344 4.972656 33.804688 14.003906 0 0 0 .003906.003906.003906zm138.457031-114.15625c-5.050781 5.054688-13.273437 5.054688-18.328125.003907l-128.566406-128.566407c-5.054688-5.054687-5.054688-13.277343 0-18.332031 2.527344-2.527343 5.847656-3.792969 9.167968-3.792969 3.316407 0 6.640626 1.265626 9.164063 3.792969l128.5625 128.5625c5.054687 5.054688 5.054687 13.277344 0 18.332031zm0 0"/><path d="m274.398438 329.683594c-8.964844.011718-17.464844 3.597656-23.925782 10.085937l-74.316406 74.316407c-6.40625 6.433593-9.933594 14.910156-9.933594 23.867187 0 8.59375 3.28125 16.601563 9.238282 22.539063 5.917968 5.921874 13.859374 9.179687 22.367187 9.179687h.035156c8.972657-.011719 17.464844-3.585937 23.914063-10.0625l74.144531-74.453125c6.429687-6.457031 9.972656-14.949219 9.972656-23.90625 0-8.539062-3.269531-16.503906-9.199219-22.421875-5.898437-5.898437-13.800781-9.144531-22.261718-9.144531-.011719 0-.023438 0-.035156 0zm11.496093 31.566406c0 3.578125-1.511719 7.148438-4.148437 9.796875l-74.140625 74.453125c-2.675781 2.6875-6.144531 4.167969-9.761719 4.171875-.003906 0-.011719 0-.015625 0-3.164063 0-6.085937-1.179687-8.234375-3.328125-2.175781-2.167969-3.375-5.148438-3.375-8.390625 0-3.628906 1.460938-7.09375 4.09375-9.738281l74.316406-74.316406c2.699219-2.710938 6.175782-4.207032 9.785156-4.210938h.015626c3.117187 0 6.003906 1.164062 8.128906 3.292969 2.152344 2.144531 3.335937 5.082031 3.335937 8.269531zm0 0"/><path d="m422.898438 98.882812c2.558593 0 5.117187-.976562 7.070312-2.929687l78.878906-78.882813c3.90625-3.902343 3.90625-10.238281 0-14.140624-3.90625-3.90625-10.234375-3.90625-14.140625 0l-78.882812 78.878906c-3.902344 3.90625-3.902344 10.238281 0 14.144531 1.953125 1.953125 4.515625 2.929687 7.074219 2.929687zm0 0"/><path d="m501.777344 102.042969h-43.71875c-5.523438 0-10 4.476562-10 10 0 5.523437 4.476562 10 10 10h43.71875c5.523437 0 10-4.476563 10-10 0-5.523438-4.476563-10-10-10zm0 0"/><path d="m397.214844 63.722656c5.523437 0 10-4.476562 10-10v-43.722656c0-5.523438-4.476563-10-10-10-5.523438 0-10 4.476562-10 10v43.71875c0 5.527344 4.476562 10.003906 10 10.003906zm0 0"/><path d="m264.175781 182.933594c1.574219 3.851562 5.558594 6.386718 9.71875 6.167968 4.117188-.214843 7.765625-3.007812 9.03125-6.929687 1.28125-3.984375-.125-8.441406-3.4375-10.988281-3.34375-2.578125-8.125-2.730469-11.636719-.386719-3.914062 2.609375-5.488281 7.796875-3.675781 12.136719zm0 0"/></svg>