<?xml version="1.0" encoding="iso-8859-1"?>
<!-- Generator: Adobe Illustrator 19.0.0, SVG Export Plug-In . SVG Version: 6.00 Build 0)  -->
<svg version="1.1" id="Capa_1" xmlns="http://www.w3.org/2000/svg" xmlns:xlink="http://www.w3.org/1999/xlink" x="0px" y="0px"
	 viewBox="0 0 512 512" style="enable-background:new 0 0 512 512;" xml:space="preserve">
<g>
	<g transform="translate(1 1)">
		<path style="fill:#00695C;" d="M502.467,237.933v76.8c0,4.713-3.821,8.533-8.533,8.533h-25.6L374.467,280.6V169.667h61.867
			L502.467,237.933z"/>
		<path style="fill:#009688;" d="M476.867,237.933v76.8c0,4.713-3.821,8.533-8.533,8.533L374.467,280.6V169.667H434.2
			L476.867,237.933z"/>
		<path style="fill:#2296F3;" d="M502.467,237.933h-44.331c-4.01,0.001-7.479-2.79-8.337-6.707l-13.466-61.559h34.62
			c3.556,0.001,6.739,2.208,7.987,5.538L502.467,237.933z"/>
		<path style="fill:#C52828;" d="M468.334,323.267H16.067c-4.713,0-8.533-3.821-8.533-8.533V280.6l418.133,0
			c11.326-0.034,22.199,4.45,30.208,12.459S468.367,311.94,468.334,323.267z"/>
		<path style="fill:#F44335;" d="M434.2,323.267H16.067c-4.713,0-8.533-3.821-8.533-8.533V280.6l384,0
			c11.326-0.034,22.199,4.45,30.208,12.459C429.75,301.068,434.234,311.94,434.2,323.267z"/>
		<path style="fill:#FF9801;" d="M50.2,212.333h85.333c4.713,0,8.533,3.821,8.533,8.533v51.2c0,4.713-3.821,8.533-8.533,8.533H50.2
			c-4.713,0-8.533-3.82-8.533-8.533v-51.2C41.667,216.154,45.487,212.333,50.2,212.333z"/>
		<path style="fill:#FFB301;" d="M246.467,220.867v51.2c0,4.713-3.821,8.533-8.533,8.533H152.6c-4.713,0-8.533-3.82-8.533-8.533
			v-51.2c0-4.713,3.82-8.533,8.533-8.533h85.333C242.646,212.333,246.467,216.154,246.467,220.867z"/>
		<path style="fill:#F57C00;" d="M255,212.333h85.333c4.713,0,8.533,3.821,8.533,8.533v51.2c0,4.713-3.821,8.533-8.533,8.533H255
			c-4.713,0-8.533-3.82-8.533-8.533v-51.2C246.467,216.154,250.287,212.333,255,212.333z"/>
		<path style="fill:#FFB301;" d="M50.2,144.067h85.333c4.713,0,8.533,3.821,8.533,8.533v51.2c0,4.713-3.821,8.533-8.533,8.533H50.2
			c-4.713,0-8.533-3.82-8.533-8.533v-51.2C41.667,147.887,45.487,144.067,50.2,144.067z"/>
		<path style="fill:#F57C00;" d="M152.6,144.067h85.333c4.713,0,8.533,3.821,8.533,8.533v51.2c0,4.713-3.821,8.533-8.533,8.533
			H152.6c-4.713,0-8.533-3.82-8.533-8.533v-51.2C144.067,147.887,147.887,144.067,152.6,144.067z"/>
		<path style="fill:#FFB301;" d="M255,144.067h85.333c4.713,0,8.533,3.821,8.533,8.533v51.2c0,4.713-3.821,8.533-8.533,8.533H255
			c-4.713,0-8.533-3.82-8.533-8.533v-51.2C246.467,147.887,250.287,144.067,255,144.067z"/>
		<path style="fill:#FF9801;" d="M50.2,75.8h85.333c4.713,0,8.533,3.82,8.533,8.533v51.2c0,4.713-3.821,8.533-8.533,8.533H50.2
			c-4.713,0-8.533-3.82-8.533-8.533v-51.2C41.667,79.621,45.487,75.8,50.2,75.8z"/>
		<path style="fill:#FFB301;" d="M246.467,84.333v51.2c0,4.713-3.821,8.533-8.533,8.533H152.6c-0.573-0.01-1.143-0.067-1.707-0.171
			c-0.535-0.093-1.052-0.265-1.536-0.512c-3.197-1.296-5.29-4.401-5.291-7.851v-51.2c0-4.713,3.82-8.533,8.533-8.533h85.333
			C242.646,75.8,246.467,79.621,246.467,84.333z"/>
		<path style="fill:#F57C00;" d="M255,75.8h85.333c4.713,0,8.533,3.82,8.533,8.533v51.2c0,4.713-3.821,8.533-8.533,8.533H255
			c-4.713,0-8.533-3.82-8.533-8.533v-51.2C246.467,79.621,250.287,75.8,255,75.8z"/>
		<path style="fill:#FFB301;" d="M50.2,7.533h85.333c4.713,0,8.533,3.821,8.533,8.533v51.2c0,4.713-3.821,8.533-8.533,8.533H50.2
			c-4.713,0-8.533-3.821-8.533-8.533v-51.2C41.667,11.354,45.487,7.533,50.2,7.533z"/>
		<path style="fill:#F57C00;" d="M152.6,7.533h85.333c4.713,0,8.533,3.821,8.533,8.533v51.2c0,4.713-3.821,8.533-8.533,8.533H152.6
			c-4.713,0-8.533-3.821-8.533-8.533v-51.2C144.067,11.354,147.887,7.533,152.6,7.533z"/>
		<g>
			<path style="fill:#FF9801;" d="M255,212.333h59.733c4.713,0,8.533,3.821,8.533,8.533v51.2c0,4.713-3.821,8.533-8.533,8.533H255
				c-4.713,0-8.533-3.82-8.533-8.533v-51.2C246.467,216.154,250.287,212.333,255,212.333z"/>
			<path style="fill:#FF9801;" d="M152.6,144.067h59.733c4.713,0,8.533,3.821,8.533,8.533v51.2c0,4.713-3.821,8.533-8.533,8.533
				H152.6c-4.713,0-8.533-3.82-8.533-8.533v-51.2C144.067,147.887,147.887,144.067,152.6,144.067z"/>
			<path style="fill:#FF9801;" d="M255,75.8h59.733c4.713,0,8.533,3.82,8.533,8.533v51.2c0,4.713-3.821,8.533-8.533,8.533H255
				c-4.713,0-8.533-3.82-8.533-8.533v-51.2C246.467,79.621,250.287,75.8,255,75.8z"/>
			<path style="fill:#FF9801;" d="M152.6,7.533h59.733c4.713,0,8.533,3.821,8.533,8.533v51.2c0,4.713-3.821,8.533-8.533,8.533H152.6
				c-4.713,0-8.533-3.821-8.533-8.533v-51.2C144.067,11.354,147.887,7.533,152.6,7.533z"/>
		</g>
		<path style="fill:#FFB301;" d="M255,7.533h85.333c4.713,0,8.533,3.821,8.533,8.533v51.2c0,4.713-3.821,8.533-8.533,8.533H255
			c-4.713,0-8.533-3.821-8.533-8.533v-51.2C246.467,11.354,250.287,7.533,255,7.533z"/>
		<g>
			<path style="fill:#FEC108;" d="M152.6,212.333h59.733c4.713,0,8.533,3.821,8.533,8.533v51.2c0,4.713-3.821,8.533-8.533,8.533
				H152.6c-4.713,0-8.533-3.82-8.533-8.533v-51.2C144.067,216.154,147.887,212.333,152.6,212.333z"/>
			<path style="fill:#FEC108;" d="M50.2,144.067h59.733c4.713,0,8.533,3.821,8.533,8.533v51.2c0,4.713-3.821,8.533-8.533,8.533H50.2
				c-4.713,0-8.533-3.82-8.533-8.533v-51.2C41.667,147.887,45.487,144.067,50.2,144.067z"/>
			<path style="fill:#FEC108;" d="M255,144.067h59.733c4.713,0,8.533,3.821,8.533,8.533v51.2c0,4.713-3.821,8.533-8.533,8.533H255
				c-4.713,0-8.533-3.82-8.533-8.533v-51.2C246.467,147.887,250.287,144.067,255,144.067z"/>
			<path style="fill:#FEC108;" d="M152.6,75.8h59.733c4.713,0,8.533,3.82,8.533,8.533v51.2c0,4.713-3.821,8.533-8.533,8.533H152.6
				c-4.713,0-8.533-3.82-8.533-8.533v-51.2C144.067,79.621,147.887,75.8,152.6,75.8z"/>
			<path style="fill:#FEC108;" d="M50.2,7.533h59.733c4.713,0,8.533,3.821,8.533,8.533v51.2c0,4.713-3.821,8.533-8.533,8.533H50.2
				c-4.713,0-8.533-3.821-8.533-8.533v-51.2C41.667,11.354,45.487,7.533,50.2,7.533z"/>
			<path style="fill:#FEC108;" d="M255,7.533h59.733c4.713,0,8.533,3.821,8.533,8.533v51.2c0,4.713-3.821,8.533-8.533,8.533H255
				c-4.713,0-8.533-3.821-8.533-8.533v-51.2C246.467,11.354,250.287,7.533,255,7.533z"/>
		</g>
		<g>
			<path style="fill:#37474F;" d="M127,357.4c0,23.564-19.103,42.667-42.667,42.667c-4.334-0.013-8.644-0.645-12.8-1.877
				c-17.783-5.632-29.868-22.136-29.868-40.789c0-18.654,12.085-35.157,29.868-40.789c4.156-1.232,8.466-1.864,12.8-1.877
				C107.897,314.733,127,333.836,127,357.4z"/>
			<path style="fill:#37474F;" d="M451.267,357.4c0,23.564-19.103,42.667-42.667,42.667c-4.334-0.013-8.644-0.645-12.8-1.877
				c-17.783-5.632-29.868-22.136-29.868-40.789c0-18.654,12.085-35.157,29.868-40.789c4.156-1.232,8.466-1.864,12.8-1.877
				C432.164,314.733,451.267,333.836,451.267,357.4z"/>
		</g>
		<g>
			<ellipse style="fill:#607D8B;" cx="71.533" cy="357.4" rx="29.867" ry="40.789"/>
			<ellipse style="fill:#607D8B;" cx="395.8" cy="357.4" rx="29.867" ry="40.789"/>
		</g>
		<rect x="7.533" y="400.067" style="fill:#4E342E;" width="494.933" height="102.4"/>
		<rect x="7.533" y="400.067" style="fill:#795548;" width="469.333" height="102.4"/>
	</g>
	<g>
		<path d="M485.862,167.671c-1.249-3.333-4.436-5.54-7.996-5.538h-85.333v-76.8c0-4.713-3.82-8.533-8.533-8.533
			s-8.533,3.82-8.533,8.533v8.533H358.4v-8.533c-0.017-3.005-0.836-5.951-2.372-8.533c1.536-2.583,2.355-5.528,2.372-8.533v-51.2
			C358.4,7.641,350.759,0,341.333,0H256c-3.005,0.017-5.951,0.836-8.533,2.372c-2.583-1.536-5.528-2.355-8.533-2.372H153.6
			c-3.005,0.017-5.951,0.836-8.533,2.372c-2.583-1.536-5.528-2.355-8.533-2.372H51.2c-9.426,0-17.067,7.641-17.067,17.067v51.2
			c0.017,3.005,0.836,5.951,2.372,8.533c-1.536,2.583-2.355,5.528-2.372,8.533v8.533H17.067v-8.533c0-4.713-3.821-8.533-8.533-8.533
			S0,80.621,0,85.333v238.933c0,4.713,3.821,8.533,8.533,8.533h32.529c-11.167,19.138-8.653,43.303,6.212,59.733H8.533
			c-4.713,0-8.533,3.821-8.533,8.533c0,4.713,3.821,8.533,8.533,8.533h494.933c4.713,0,8.533-3.821,8.533-8.533
			c0-4.713-3.82-8.533-8.533-8.533h-55.808c14.866-16.43,17.379-40.596,6.212-59.733h49.596c4.713,0,8.533-3.82,8.533-8.533v-85.333
			c0.002-1.023-0.18-2.037-0.538-2.995L485.862,167.671z M375.467,110.933v162.133H358.4v-51.2
			c-0.017-3.005-0.836-5.951-2.372-8.533c1.536-2.583,2.355-5.528,2.372-8.533v-51.2c-0.017-3.005-0.836-5.951-2.372-8.533
			c1.536-2.583,2.355-5.528,2.372-8.533v-25.6H375.467z M51.2,153.6h85.333v51.2H51.2V153.6z M153.6,153.6h85.333v51.2H153.6V153.6z
			 M256,153.6h85.333v51.2H256V153.6z M341.333,102.4v34.133H256v-51.2h85.333V102.4z M238.933,136.533H153.6v-51.2h85.333V136.533z
			 M136.533,136.533H51.2v-51.2h85.333V136.533z M51.2,221.867h85.333v51.2H51.2V221.867z M153.6,221.867h85.333v51.2H153.6V221.867
			z M256,221.867h85.333v51.2H256V221.867z M341.333,17.067v51.2H256v-51.2H341.333z M238.933,17.067v51.2H153.6v-51.2H238.933z
			 M51.2,17.067h85.333v51.2H51.2V17.067z M34.133,110.933v25.6c0.017,3.005,0.836,5.951,2.372,8.533
			c-1.536,2.583-2.355,5.528-2.372,8.533v51.2c0.017,3.005,0.836,5.951,2.372,8.533c-1.536,2.583-2.355,5.528-2.372,8.533v51.2
			H17.067V110.933H34.133z M17.067,290.133h409.6c15.517,0.058,29.042,10.575,32.922,25.6h-21.743
			c-17.111-11.378-39.379-11.378-56.491,0H113.579c-17.111-11.378-39.379-11.378-56.491,0H17.067V290.133z M365.329,332.8
			c-11.167,19.138-8.653,43.303,6.212,59.733H123.392c14.866-16.43,17.379-40.596,6.212-59.733H365.329z M51.2,358.4
			c0-18.851,15.282-34.133,34.133-34.133s34.133,15.282,34.133,34.133s-15.282,34.133-34.133,34.133
			c-9.053,0-17.735-3.596-24.136-9.997C54.796,376.135,51.2,367.453,51.2,358.4z M375.467,358.4
			c0-18.851,15.282-34.133,34.133-34.133c18.851,0,34.133,15.282,34.133,34.133s-15.282,34.133-34.133,34.133
			C390.749,392.533,375.467,377.251,375.467,358.4z M477.158,315.733c-4.197-24.619-25.518-42.635-50.492-42.667h-34.133V179.2
			h79.42l19.2,51.2h-32.222l-6.921-27.674c-1.172-4.54-5.788-7.284-10.336-6.145c-4.548,1.139-7.325,5.736-6.218,10.292
			l8.533,34.133c0.951,3.797,4.363,6.46,8.277,6.46h42.667v68.267H477.158z"/>
		<path d="M76.8,119.467h34.133c4.713,0,8.533-3.821,8.533-8.533c0-4.713-3.821-8.533-8.533-8.533H76.8
			c-4.713,0-8.533,3.821-8.533,8.533C68.267,115.646,72.087,119.467,76.8,119.467z"/>
		<path d="M110.933,170.667H76.8c-4.713,0-8.533,3.82-8.533,8.533s3.821,8.533,8.533,8.533h34.133c4.713,0,8.533-3.821,8.533-8.533
			S115.646,170.667,110.933,170.667z"/>
		<path d="M110.933,238.933H76.8c-4.713,0-8.533,3.821-8.533,8.533c0,4.713,3.821,8.533,8.533,8.533h34.133
			c4.713,0,8.533-3.821,8.533-8.533C119.467,242.754,115.646,238.933,110.933,238.933z"/>
		<path d="M179.2,119.467h34.133c4.713,0,8.533-3.821,8.533-8.533c0-4.713-3.821-8.533-8.533-8.533H179.2
			c-4.713,0-8.533,3.821-8.533,8.533C170.667,115.646,174.487,119.467,179.2,119.467z"/>
		<path d="M213.333,170.667H179.2c-4.713,0-8.533,3.82-8.533,8.533s3.821,8.533,8.533,8.533h34.133c4.713,0,8.533-3.821,8.533-8.533
			S218.046,170.667,213.333,170.667z"/>
		<path d="M213.333,238.933H179.2c-4.713,0-8.533,3.821-8.533,8.533c0,4.713,3.821,8.533,8.533,8.533h34.133
			c4.713,0,8.533-3.821,8.533-8.533C221.867,242.754,218.046,238.933,213.333,238.933z"/>
		<path d="M281.6,119.467h34.133c4.713,0,8.533-3.821,8.533-8.533c0-4.713-3.821-8.533-8.533-8.533H281.6
			c-4.713,0-8.533,3.821-8.533,8.533C273.067,115.646,276.887,119.467,281.6,119.467z"/>
		<path d="M110.933,34.133H76.8c-4.713,0-8.533,3.821-8.533,8.533S72.087,51.2,76.8,51.2h34.133c4.713,0,8.533-3.821,8.533-8.533
			S115.646,34.133,110.933,34.133z"/>
		<path d="M179.2,51.2h34.133c4.713,0,8.533-3.821,8.533-8.533s-3.821-8.533-8.533-8.533H179.2c-4.713,0-8.533,3.821-8.533,8.533
			S174.487,51.2,179.2,51.2z"/>
		<path d="M281.6,51.2h34.133c4.713,0,8.533-3.821,8.533-8.533s-3.821-8.533-8.533-8.533H281.6c-4.713,0-8.533,3.821-8.533,8.533
			S276.887,51.2,281.6,51.2z"/>
		<path d="M315.733,170.667H281.6c-4.713,0-8.533,3.82-8.533,8.533s3.82,8.533,8.533,8.533h34.133c4.713,0,8.533-3.821,8.533-8.533
			S320.446,170.667,315.733,170.667z"/>
		<path d="M315.733,238.933H281.6c-4.713,0-8.533,3.821-8.533,8.533c0,4.713,3.82,8.533,8.533,8.533h34.133
			c4.713,0,8.533-3.821,8.533-8.533C324.267,242.754,320.446,238.933,315.733,238.933z"/>
		<path d="M503.467,494.933H8.533c-4.713,0-8.533,3.82-8.533,8.533S3.821,512,8.533,512h494.933c4.713,0,8.533-3.821,8.533-8.533
			S508.18,494.933,503.467,494.933z"/>
		<path d="M8.533,443.733H102.4c4.713,0,8.533-3.821,8.533-8.533c0-4.713-3.821-8.533-8.533-8.533H8.533
			C3.821,426.667,0,430.487,0,435.2C0,439.913,3.821,443.733,8.533,443.733z"/>
		<path d="M8.533,477.867H102.4c4.713,0,8.533-3.82,8.533-8.533s-3.821-8.533-8.533-8.533H8.533C3.821,460.8,0,464.621,0,469.333
			S3.821,477.867,8.533,477.867z"/>
		<path d="M503.467,426.667H136.533c-4.713,0-8.533,3.821-8.533,8.533c0,4.713,3.821,8.533,8.533,8.533h366.933
			c4.713,0,8.533-3.821,8.533-8.533C512,430.487,508.18,426.667,503.467,426.667z"/>
		<path d="M503.467,460.8H409.6c-4.713,0-8.533,3.821-8.533,8.533s3.821,8.533,8.533,8.533h93.867c4.713,0,8.533-3.82,8.533-8.533
			S508.18,460.8,503.467,460.8z"/>
		<path d="M375.467,477.867c4.713,0,8.533-3.82,8.533-8.533s-3.821-8.533-8.533-8.533H136.533c-4.713,0-8.533,3.821-8.533,8.533
			s3.821,8.533,8.533,8.533H375.467z"/>
	</g>
</g>
<g>
</g>
<g>
</g>
<g>
</g>
<g>
</g>
<g>
</g>
<g>
</g>
<g>
</g>
<g>
</g>
<g>
</g>
<g>
</g>
<g>
</g>
<g>
</g>
<g>
</g>
<g>
</g>
<g>
</g>
</svg>
